<svg width="15" height="29" viewBox="0 0 15 29" fill="none" xmlns="http://www.w3.org/2000/svg">
<path d="M0.00676292 14.4184C-0.0187262 14.5722 0.0278351 14.7355 0.146447 14.8542C0.148372 14.8561 0.150309 14.858 0.152258 14.8599L14.1471 28.8547C14.3423 29.05 14.6589 29.05 14.8542 28.8547C15.0494 28.6594 15.0494 28.3428 14.8542 28.1476L1.20715 14.5006L14.8542 0.853555C15.0494 0.658292 15.0494 0.34171 14.8542 0.146447C14.6589 -0.0488157 14.3423 -0.0488157 14.1471 0.146447L0.151345 14.1422C0.149708 14.1438 0.14808 14.1454 0.14646 14.147C0.0697887 14.2236 0.0232232 14.319 0.00676292 14.4184Z" fill="black"/>
</svg>
