<svg width="29" height="15" viewBox="0 0 29 15" fill="none" xmlns="http://www.w3.org/2000/svg">
<path d="M14.5827 0.00676292C14.429 -0.0187262 14.2656 0.0278351 14.147 0.146447C14.145 0.148372 14.1431 0.150309 14.1413 0.152257L0.146447 14.1471C-0.0488155 14.3423 -0.0488155 14.6589 0.146447 14.8542C0.341709 15.0494 0.658291 15.0494 0.853553 14.8542L14.5006 1.20715L28.1476 14.8542C28.3428 15.0494 28.6594 15.0494 28.8547 14.8542C29.05 14.6589 29.05 14.3423 28.8547 14.1471L14.859 0.151345C14.8574 0.149708 14.8558 0.148079 14.8542 0.146459C14.7775 0.0697882 14.6821 0.0232232 14.5827 0.00676292Z" fill="black"/>
</svg>
