<svg width="15" height="29" viewBox="0 0 15 29" fill="none" xmlns="http://www.w3.org/2000/svg">
<path d="M14.9936 14.5827C15.0191 14.429 14.9725 14.2656 14.8539 14.147C14.852 14.1451 14.8501 14.1431 14.8481 14.1413L0.85331 0.146447C0.658047 -0.0488155 0.341465 -0.0488155 0.146202 0.146447C-0.0490596 0.341709 -0.0490596 0.658291 0.146202 0.853553L13.7932 14.5006L0.146214 28.1476C-0.0490475 28.3428 -0.0490475 28.6594 0.146214 28.8547C0.341476 29.05 0.658059 29.05 0.853321 28.8547L14.849 14.859C14.8507 14.8574 14.8523 14.8558 14.8539 14.8542C14.9306 14.7775 14.9772 14.6821 14.9936 14.5827Z" fill="black"/>
</svg>
