<svg width="20" height="20" viewBox="0 0 20 20" fill="none" xmlns="http://www.w3.org/2000/svg">
<path d="M8.748 10.638C8.542 10.5 8.284 10.482 8.042 10.476C7.554 10.476 7.068 10.476 6.58 10.476C6.58 10.996 6.58 11.516 6.58 12.038C7.042 12.038 7.504 12.038 7.966 12.038C8.152 12.038 8.342 12.03 8.522 11.972C8.674 11.924 8.81 11.826 8.894 11.69C9.002 11.514 9.022 11.3 9.006 11.1C8.99 10.918 8.9 10.738 8.746 10.638H8.748Z" fill="black"/>
<path d="M12.884 9.548C12.644 9.54 12.386 9.582 12.196 9.74C11.984 9.92 11.874 10.192 11.832 10.462C12.492 10.462 13.15 10.462 13.81 10.462C13.788 10.242 13.73 10.012 13.574 9.846C13.396 9.658 13.14 9.556 12.884 9.548Z" fill="black"/>
<path d="M8.464 9.444C8.602 9.398 8.744 9.326 8.816 9.192C8.898 9.024 8.912 8.824 8.868 8.644C8.832 8.486 8.708 8.35 8.552 8.3C8.32 8.228 8.076 8.216 7.836 8.214H6.58C6.58 8.644 6.58 9.076 6.58 9.506C7.042 9.506 7.506 9.506 7.968 9.506C8.134 9.506 8.304 9.496 8.464 9.442V9.444Z" fill="black"/>
<path d="M10 0C4.478 0 0 4.478 0 10C0 15.522 4.478 20 10 20C15.522 20 20 15.522 20 10C20 4.478 15.522 0 10 0ZM14.078 7.474C14.076 7.718 14.08 7.96 14.076 8.204C13.23 8.2 12.382 8.204 11.534 8.204C11.534 7.962 11.534 7.718 11.534 7.476C12.382 7.476 13.23 7.476 14.078 7.476V7.474ZM10.238 11.592C10.192 11.872 10.072 12.134 9.904 12.36C9.69 12.642 9.38 12.852 9.036 12.942C8.706 13.03 8.362 13.052 8.022 13.052H5.398V7.198C6.336 7.198 7.274 7.198 8.212 7.198C8.52 7.202 8.832 7.232 9.124 7.338C9.424 7.442 9.694 7.64 9.864 7.91C10.04 8.194 10.096 8.54 10.068 8.868C10.056 9.114 9.976 9.36 9.82 9.554C9.696 9.71 9.524 9.818 9.35 9.91C9.636 10.018 9.904 10.202 10.06 10.472C10.258 10.806 10.298 11.212 10.24 11.59L10.238 11.592ZM15 11.206C13.934 11.206 12.868 11.206 11.802 11.206C11.814 11.446 11.866 11.696 12.012 11.892C12.182 12.124 12.466 12.25 12.748 12.274C13.014 12.298 13.3 12.26 13.516 12.092C13.626 12.016 13.696 11.898 13.766 11.786C14.158 11.786 14.548 11.786 14.94 11.786C14.9 12.05 14.76 12.29 14.584 12.486C14.412 12.692 14.196 12.862 13.952 12.976C13.58 13.154 13.16 13.208 12.75 13.194C12.338 13.18 11.93 13.064 11.58 12.848C11.336 12.7 11.112 12.51 10.966 12.264C10.766 11.944 10.684 11.564 10.658 11.192C10.632 10.728 10.668 10.248 10.85 9.814C11.006 9.428 11.298 9.104 11.658 8.898C12.038 8.674 12.49 8.592 12.928 8.61C13.334 8.622 13.742 8.72 14.088 8.936C14.54 9.232 14.846 9.726 14.942 10.252C14.992 10.478 14.99 10.71 15 10.94V11.206Z" fill="black"/>
</svg>
