<svg width="20" height="20" viewBox="0 0 20 20" fill="none" xmlns="http://www.w3.org/2000/svg">
<path d="M10.642 10.72C10.454 10.856 10.226 10.934 10.004 10.934H9.972C9.766 10.93 9.556 10.86 9.378 10.734C9.378 10.734 6.656 8.92 5.788 8.34V8.536C5.788 9.956 5.788 11.378 5.788 12.798C5.788 12.84 5.806 12.882 5.84 12.916C5.874 12.95 5.918 12.97 5.96 12.97H14.03C14.078 12.97 14.122 12.95 14.156 12.914C14.19 12.878 14.208 12.832 14.206 12.788V8.342L10.638 10.72H10.642Z" fill="black"/>
<path d="M9.898 10.022C9.928 10.044 9.964 10.054 10 10.054C10.036 10.054 10.072 10.044 10.102 10.024C11.104 9.356 14.144 7.33 14.144 7.33C14.192 7.298 14.22 7.24 14.21 7.186C14.198 7.098 14.116 7.028 14.034 7.028H9.096C8.042 7.028 6.988 7.028 5.934 7.03C5.894 7.034 5.84 7.07 5.814 7.12C5.774 7.188 5.792 7.282 5.846 7.32C7.116 8.168 9.898 10.022 9.898 10.022Z" fill="black"/>
<path d="M10 0C4.478 0 0 4.478 0 10C0 15.522 4.478 20 10 20C15.522 20 20 15.522 20 10C20 4.478 15.522 0 10 0ZM15.09 12.812C15.082 13.126 14.934 13.424 14.694 13.616C14.51 13.766 14.272 13.85 14.026 13.85H6.058C5.898 13.85 5.726 13.84 5.56 13.766C5.186 13.616 4.916 13.222 4.91 12.814V7.19C4.918 6.906 5.036 6.636 5.236 6.448C5.428 6.26 5.696 6.152 5.97 6.152H14.012C14.27 6.152 14.508 6.236 14.694 6.388C14.932 6.578 15.08 6.878 15.088 7.188V12.814L15.09 12.812Z" fill="black"/>
</svg>
