<svg width="20" height="20" viewBox="0 0 20 20" fill="none" xmlns="http://www.w3.org/2000/svg">
<path d="M10 0C4.478 0 0 4.478 0 10C0 15.522 4.478 20 10 20C15.522 20 20 15.522 20 10C20 4.478 15.522 0 10 0ZM7.99 13.4C7.436 13.4 6.884 13.4 6.33 13.4C6.33 11.62 6.33 9.84 6.33 8.06H7.99C7.99 9.84 7.99 11.62 7.99 13.4ZM7.85 7.03C7.662 7.23 7.386 7.344 7.112 7.328C6.856 7.316 6.61 7.194 6.442 7.002C6.276 6.816 6.186 6.562 6.2 6.312C6.21 6.068 6.32 5.828 6.5 5.662C6.648 5.522 6.842 5.43 7.044 5.406C7.264 5.38 7.494 5.43 7.68 5.552C7.914 5.702 8.076 5.958 8.11 6.234C8.148 6.52 8.05 6.82 7.85 7.028V7.03ZM12.54 13.39C12.54 12.522 12.54 11.654 12.54 10.786C12.54 10.506 12.54 10.22 12.46 9.948C12.414 9.784 12.326 9.624 12.184 9.522C12.03 9.408 11.832 9.376 11.646 9.38C11.436 9.384 11.218 9.434 11.052 9.57C10.9 9.692 10.81 9.874 10.762 10.06C10.674 10.386 10.692 10.726 10.69 11.06C10.69 11.84 10.69 12.62 10.69 13.4C10.136 13.4 9.584 13.4 9.03 13.4C9.03 11.62 9.03 9.84 9.03 8.06C9.56 8.06 10.09 8.06 10.62 8.06C10.62 8.306 10.616 8.552 10.622 8.798C10.66 8.766 10.678 8.716 10.706 8.676C10.92 8.354 11.256 8.124 11.624 8.014C11.876 7.936 12.144 7.92 12.406 7.936C12.782 7.956 13.168 8.044 13.476 8.272C13.74 8.464 13.918 8.752 14.02 9.058C14.172 9.512 14.196 9.998 14.198 10.474C14.198 11.446 14.198 12.418 14.198 13.39C13.644 13.39 13.092 13.39 12.538 13.39H12.54Z" fill="black"/>
</svg>
