<svg width="168" height="30" viewBox="0 0 168 30" fill="none" xmlns="http://www.w3.org/2000/svg">
<path d="M0 0V9.03L24.81 0H0Z" fill="#F93822"/>
<path d="M15.6201 7.17L23.9301 30H30.0001V1.94L15.6201 7.17Z" fill="#F93822"/>
<path d="M0 12.86V30H20.1L12.24 8.41L0 12.86Z" fill="#F93822"/>
<path d="M40.59 24.43V29.76H40V24.43H40.59Z" fill="#1A1A1A"/>
<path d="M44.8501 29.76V24.2L49.0101 28.56V24.43H49.6001V30L45.4401 25.64V29.76H44.8501Z" fill="#1A1A1A"/>
<path d="M53.8604 24.43H54.9504C55.4904 24.43 56.2403 24.49 56.9203 25.05C57.4103 25.46 57.8304 26.14 57.8304 27.1C57.8304 28.22 57.2804 28.82 56.8904 29.15C56.4004 29.57 55.8903 29.77 54.9403 29.77H53.8604V24.43ZM54.4504 29.2H54.9704C55.3904 29.2 55.9804 29.15 56.5004 28.72C56.9004 28.38 57.2204 27.86 57.2204 27.1C57.2204 25.82 56.3204 24.99 54.9704 24.99H54.4504V29.2Z" fill="#1A1A1A"/>
<path d="M62.38 27.7C62.38 28.15 62.38 28.64 62.8 28.99C63.02 29.17 63.38 29.29 63.68 29.29C63.98 29.29 64.34 29.17 64.56 28.99C64.98 28.63 64.98 28.14 64.98 27.7V24.43H65.57V27.86C65.57 28.31 65.52 28.74 65.23 29.14C64.91 29.58 64.35 29.86 63.67 29.86C62.99 29.86 62.43 29.58 62.11 29.14C61.82 28.74 61.77 28.31 61.77 27.86V24.43H62.36V27.7H62.38Z" fill="#1A1A1A"/>
<path d="M72.2203 25.48C72.1503 25.34 72.0303 25.18 71.9103 25.08C71.8103 25 71.6103 24.9 71.3103 24.9C70.7803 24.9 70.4103 25.23 70.4103 25.72C70.4103 25.93 70.4703 26.05 70.6103 26.18C70.7703 26.34 70.9703 26.43 71.1703 26.52L71.6803 26.74C71.9903 26.88 72.2803 27.02 72.5003 27.24C72.7703 27.51 72.8803 27.82 72.8803 28.21C72.8803 29.19 72.1503 29.85 71.1903 29.85C70.8403 29.85 70.4003 29.78 70.0303 29.42C69.7703 29.16 69.6103 28.8 69.5303 28.48L70.1103 28.32C70.1503 28.6 70.2803 28.84 70.4303 29C70.6603 29.23 70.9303 29.3 71.2003 29.3C71.9303 29.3 72.2703 28.78 72.2703 28.24C72.2703 28 72.2003 27.79 72.0103 27.62C71.8603 27.48 71.6503 27.38 71.3703 27.25L70.8903 27.03C70.6803 26.93 70.4203 26.82 70.1803 26.59C69.9503 26.37 69.8103 26.12 69.8103 25.72C69.8103 24.9 70.4403 24.34 71.3103 24.34C71.6403 24.34 71.9003 24.4 72.1703 24.58C72.3903 24.72 72.5703 24.94 72.6903 25.17L72.2203 25.48Z" fill="#1A1A1A"/>
<path d="M77.84 24.99V29.76H77.25V24.99H75.96V24.43H79.14V24.99H77.84Z" fill="#1A1A1A"/>
<path d="M83.6701 24.43C84.0301 24.43 84.5701 24.45 84.9701 24.73C85.2801 24.94 85.5501 25.35 85.5501 25.91C85.5501 26.73 85.0101 27.33 84.2101 27.38L85.9101 29.76H85.1901L83.5701 27.43H83.4201V29.76H82.8301V24.43H83.6901H83.6701ZM83.4101 26.9H83.7901C84.5301 26.9 84.9601 26.55 84.9601 25.92C84.9601 25.62 84.8701 25.33 84.5401 25.14C84.3001 25 84.0301 24.99 83.7701 24.99H83.4101V26.9Z" fill="#1A1A1A"/>
<path d="M90.3 24.43V29.76H89.71V24.43H90.3Z" fill="#1A1A1A"/>
<path d="M97.4997 28.26H95.2297L94.5897 29.76H93.9297L96.3797 24.17L98.7697 29.76H98.1097L97.4897 28.26H97.4997ZM97.2697 27.7L96.3697 25.57L95.4597 27.7H97.2697Z" fill="#1A1A1A"/>
<path d="M103.01 24.43V29.2H104.48V29.76H102.42V24.43H103.01Z" fill="#1A1A1A"/>
<path d="M112.9 24.43H113.99C114.53 24.43 115.28 24.49 115.96 25.05C116.45 25.46 116.87 26.14 116.87 27.1C116.87 28.22 116.32 28.82 115.93 29.15C115.44 29.57 114.93 29.77 113.98 29.77H112.9V24.43ZM113.49 29.2H114.01C114.43 29.2 115.02 29.15 115.54 28.72C115.94 28.38 116.26 27.86 116.26 27.1C116.26 25.82 115.36 24.99 114.01 24.99H113.49V29.2Z" fill="#1A1A1A"/>
<path d="M123.6 24.99H121.43V26.57H123.54V27.13H121.43V29.2H123.6V29.76H120.83V24.43H123.6V24.99Z" fill="#1A1A1A"/>
<path d="M129.96 25.48C129.89 25.34 129.77 25.18 129.65 25.08C129.55 25 129.35 24.9 129.05 24.9C128.52 24.9 128.15 25.23 128.15 25.72C128.15 25.93 128.21 26.05 128.35 26.18C128.51 26.34 128.71 26.43 128.91 26.52L129.42 26.74C129.73 26.88 130.02 27.02 130.24 27.24C130.51 27.51 130.62 27.82 130.62 28.21C130.62 29.19 129.89 29.85 128.93 29.85C128.58 29.85 128.14 29.78 127.77 29.42C127.51 29.16 127.35 28.8 127.27 28.48L127.85 28.32C127.89 28.6 128.02 28.84 128.17 29C128.4 29.23 128.67 29.3 128.94 29.3C129.67 29.3 130.01 28.78 130.01 28.24C130.01 28 129.94 27.79 129.75 27.62C129.6 27.48 129.39 27.38 129.11 27.25L128.63 27.03C128.42 26.93 128.16 26.82 127.92 26.59C127.69 26.37 127.55 26.12 127.55 25.72C127.55 24.9 128.18 24.34 129.05 24.34C129.38 24.34 129.64 24.4 129.91 24.58C130.13 24.72 130.31 24.94 130.43 25.17L129.96 25.48Z" fill="#1A1A1A"/>
<path d="M135.19 24.43V29.76H134.6V24.43H135.19Z" fill="#1A1A1A"/>
<path d="M142.2 27.08H144.42V27.21C144.42 27.8 144.24 28.44 143.91 28.9C143.75 29.12 143.15 29.86 141.93 29.86C140.35 29.86 139.16 28.65 139.16 27.1C139.16 25.55 140.35 24.34 141.94 24.34C142.45 24.34 143.05 24.47 143.57 24.87C143.81 25.05 144.03 25.29 144.19 25.5L143.75 25.9C143.6 25.68 143.42 25.49 143.25 25.35C142.99 25.14 142.59 24.9 141.96 24.9C140.67 24.9 139.78 25.87 139.78 27.11C139.78 28.57 140.94 29.3 141.95 29.3C142.66 29.3 143.28 28.94 143.58 28.4C143.68 28.23 143.78 27.98 143.8 27.64H142.22V27.08H142.2Z" fill="#1A1A1A"/>
<path d="M148.39 29.76V24.2L152.55 28.56V24.43H153.14V30L148.98 25.64V29.76H148.39Z" fill="#1A1A1A"/>
<path d="M160.17 24.99H158V26.57H160.11V27.13H158V29.2H160.17V29.76H157.4V24.43H160.17V24.99Z" fill="#1A1A1A"/>
<path d="M164.99 24.43C165.35 24.43 165.89 24.45 166.29 24.73C166.6 24.94 166.87 25.35 166.87 25.91C166.87 26.73 166.33 27.33 165.53 27.38L167.22 29.76H166.5L164.88 27.43H164.73V29.76H164.14V24.43H165H164.99ZM164.73 26.9H165.11C165.85 26.9 166.28 26.55 166.28 25.92C166.28 25.62 166.19 25.33 165.86 25.14C165.62 25 165.35 24.99 165.09 24.99H164.73V26.9Z" fill="#1A1A1A"/>
<path d="M42.29 6.84L48.08 0.989998H51.09L44.33 7.63L51.14 15.66H48.09L42.74 9.15L42.29 9.59V15.66H40V0.989998H42.29V6.84Z" fill="#1A1A1A"/>
<path d="M67.5898 8.34001C67.5898 12.65 64.2898 15.95 59.7998 15.95C55.3098 15.95 52.0098 12.65 52.0098 8.34001C52.0098 4.03001 55.3098 0.730011 59.7998 0.730011C64.2898 0.730011 67.5898 4.03001 67.5898 8.34001ZM65.2998 8.34001C65.2998 5.08001 63.0098 2.80001 59.7998 2.80001C56.5898 2.80001 54.2998 5.09001 54.2998 8.34001C54.2998 11.59 56.5898 13.88 59.7998 13.88C63.0098 13.88 65.2998 11.59 65.2998 8.34001Z" fill="#1A1A1A"/>
<path d="M70.4697 15.67V0L81.3397 11.16V0.99H83.6297V16.57L72.7597 5.41V15.66H70.4697V15.67Z" fill="#1A1A1A"/>
<path d="M93.7001 4.25C93.5701 3.92 93.3601 3.61 93.0301 3.33C92.5601 2.96 92.0601 2.8 91.4101 2.8C90.0201 2.8 89.3001 3.61 89.3001 4.56C89.3001 5 89.4601 5.77 90.9201 6.34L92.4201 6.93C95.1801 8.03 95.9501 9.57 95.9501 11.24C95.9501 14.03 93.9301 15.95 91.1201 15.95C89.3901 15.95 88.3601 15.31 87.5901 14.48C86.7801 13.6 86.4201 12.63 86.3301 11.62L88.6001 11.14C88.6001 11.87 88.8701 12.55 89.2301 13.01C89.6601 13.54 90.2901 13.89 91.1801 13.89C92.5701 13.89 93.6501 12.9 93.6501 11.43C93.6501 9.96 92.4801 9.32 91.4901 8.92L90.0501 8.33C88.8101 7.82 87.0001 6.81 87.0001 4.61C87.0001 2.63 88.5701 0.739998 91.3801 0.739998C93.0001 0.739998 93.9201 1.33 94.3901 1.73C94.7901 2.08 95.2201 2.59 95.5401 3.2L93.7001 4.26V4.25Z" fill="#1A1A1A"/>
<path d="M102.53 3.09999V15.66H100.24V3.09999H96.7998V0.98999H105.96V3.09999H102.52H102.53Z" fill="#1A1A1A"/>
<path d="M109.49 12.12L107.85 15.66H105.38L112.84 0.129997L119.94 15.66H117.47L115.9 12.12H109.49ZM114.97 10.01L112.75 5.04L110.44 10.01H114.98H114.97Z" fill="#1A1A1A"/>
<path d="M121.83 15.67V0L132.7 11.16V0.99H134.99V16.57L124.12 5.41V15.66H121.83V15.67Z" fill="#1A1A1A"/>
<path d="M142.74 3.09999V15.66H140.45V3.09999H137.01V0.98999H146.17V3.09999H142.73H142.74Z" fill="#1A1A1A"/>
<path d="M150.49 0.98999V15.67H148.2V0.98999H150.49Z" fill="#1A1A1A"/>
<path d="M154.09 15.67V0L164.96 11.16V0.99H167.25V16.57L156.38 5.41V15.66H154.09V15.67Z" fill="#1A1A1A"/>
</svg>
