<?xml version="1.0" encoding="UTF-8" ?>
<!DOCTYPE svg PUBLIC "-//W3C//DTD SVG 1.1//EN" "http://www.w3.org/Graphics/SVG/1.1/DTD/svg11.dtd">
<svg width="512pt" height="512pt" viewBox="0 0 512 512" version="1.1" xmlns="http://www.w3.org/2000/svg">
<g id="#000000ff">
<path fill="#000000" opacity="1.00" d=" M 252.42 0.00 L 259.52 0.00 C 301.47 0.69 343.27 11.57 379.95 32.00 C 431.70 60.52 472.93 107.57 494.32 162.66 C 505.56 191.20 511.43 221.77 512.00 252.43 L 512.00 259.52 C 511.26 301.96 500.10 344.23 479.22 381.22 C 460.28 415.11 433.44 444.50 401.53 466.59 C 360.40 495.30 310.60 511.00 260.51 512.00 L 252.42 512.00 C 210.24 511.31 168.21 500.27 131.39 479.63 C 72.13 446.77 26.86 389.51 9.22 324.02 C 3.46 303.36 0.60 281.96 0.00 260.54 L 0.00 252.45 C 0.78 197.94 19.27 143.77 52.62 100.58 C 76.74 69.07 108.21 43.15 143.94 25.82 C 177.61 9.32 214.97 0.68 252.42 0.00 M 159.39 123.55 C 156.32 125.29 154.03 128.06 151.53 130.50 C 144.54 137.60 136.97 144.35 131.70 152.91 C 123.29 166.12 119.69 182.31 121.75 197.84 C 122.63 206.03 125.62 213.75 128.52 221.39 C 138.90 248.54 154.80 273.29 173.31 295.58 C 195.85 322.24 222.52 345.56 252.64 363.29 C 270.73 374.32 290.53 382.45 310.96 387.95 C 328.77 392.09 348.17 388.60 363.42 378.52 C 371.61 373.29 378.03 365.89 385.00 359.23 C 387.65 356.68 390.47 353.75 390.71 349.85 C 391.18 345.94 388.90 342.43 386.21 339.82 C 371.04 324.65 355.90 309.45 340.74 294.27 C 338.18 291.69 334.71 289.64 330.94 290.14 C 326.35 290.43 323.21 294.21 320.21 297.25 C 312.26 305.27 304.44 313.45 296.37 321.36 C 288.75 328.64 276.10 329.47 267.55 323.33 C 237.53 302.26 210.97 276.21 189.38 246.55 C 182.98 237.97 183.86 225.00 191.39 217.38 C 199.62 208.96 208.02 200.70 216.35 192.36 C 219.22 189.48 222.70 186.43 223.01 182.08 C 223.51 178.28 221.45 174.78 218.85 172.20 C 204.85 158.19 190.85 144.19 176.84 130.19 C 174.67 128.02 172.61 125.68 170.03 123.97 C 166.90 121.92 162.69 121.77 159.39 123.55 Z" />
</g>
</svg>
