<svg width="10" height="10" viewBox="0 0 10 10" fill="none" xmlns="http://www.w3.org/2000/svg">
<path d="M3.95762 0H4.09512C4.77226 0.0109375 5.44687 0.191797 6.03418 0.530078C6.66152 0.888086 7.18984 1.41719 7.54668 2.04512C7.94219 2.73496 8.12246 3.54434 8.0625 4.33691C8.00273 5.17578 7.66836 5.99004 7.12734 6.63301C7.8918 7.42852 8.65664 8.22363 9.42129 9.01895C9.48848 9.08867 9.56133 9.15684 9.60215 9.24629C9.6832 9.41309 9.6666 9.62227 9.55937 9.77383C9.47168 9.90313 9.32383 9.98418 9.16953 10H9.08555C8.95605 9.98633 8.83184 9.92852 8.74277 9.83301C7.94551 9.00332 7.14805 8.17402 6.35039 7.34473C5.93594 7.63379 5.46894 7.84844 4.97676 7.96484C4.25293 8.1375 3.48125 8.10566 2.77461 7.87188C2.13672 7.66211 1.55391 7.28828 1.09473 6.79844C0.612695 6.28652 0.266796 5.64687 0.106835 4.96172C-0.0673836 4.22266 -0.0281258 3.43398 0.221679 2.7166C0.499218 1.91309 1.03945 1.2043 1.73828 0.720898C2.38555 0.267969 3.16855 0.0167969 3.95762 0ZM3.72305 1.07012C3.35859 1.10918 3.00117 1.21484 2.67539 1.3832C2.07246 1.6916 1.58086 2.21191 1.30742 2.83184C1.09805 3.30176 1.01601 3.82695 1.06816 4.33867C1.12695 4.93711 1.375 5.51465 1.76641 5.97109C2.16309 6.43828 2.70684 6.77891 3.30117 6.92891C3.87031 7.0748 4.48262 7.04688 5.03574 6.84902C5.61074 6.64531 6.11855 6.25918 6.47051 5.76133C6.79883 5.30098 6.9916 4.74531 7.0168 4.18027C7.0459 3.60215 6.90117 3.0168 6.60469 2.51973C6.29238 1.99102 5.81328 1.5623 5.25215 1.3125C4.77598 1.09727 4.24219 1.01563 3.72305 1.07012Z" fill="black"/>
</svg>
